<svg xmlns="http://www.w3.org/2000/svg" viewBox="0 0 240 240">
  <defs>
    <linearGradient id="bg" x1="0" x2="1" y1="0" y2="1">
      <stop stop-color="#dff7ef"/>
      <stop offset="1" stop-color="#e9f4ff"/>
    </linearGradient>
  </defs>
  <rect width="240" height="240" rx="80" fill="url(#bg)"/>
  <path d="M61 115c0-43 28-74 62-74 35 0 62 31 62 74v42c0 30-20 49-62 49s-62-19-62-49z" fill="#fff" stroke="#151515" stroke-width="11" stroke-linejoin="round"/>
  <path d="M77 70 73 25l38 31M166 70l5-45-39 31" fill="#ffc7dc" stroke="#151515" stroke-width="11" stroke-linejoin="round"/>
  <path d="M171 122c22-12 40-1 38 20-2 18-18 28-37 20" fill="none" stroke="#151515" stroke-width="11" stroke-linecap="round"/>
  <circle cx="96" cy="120" r="21" fill="#0e0e0e"/>
  <circle cx="149" cy="120" r="21" fill="#0e0e0e"/>
  <circle cx="88" cy="111" r="6" fill="#fff"/>
  <circle cx="141" cy="111" r="6" fill="#fff"/>
  <path d="M112 158c7 5 17 5 24 0" fill="none" stroke="#151515" stroke-width="8" stroke-linecap="round"/>
</svg>
