<svg xmlns="http://www.w3.org/2000/svg" viewBox="0 0 720 400">
  <defs>
    <linearGradient id="g" x1="0" x2="1" y1="0" y2="1">
      <stop stop-color="#fff5cc"/>
      <stop offset=".55" stop-color="#e1f8f0"/>
      <stop offset="1" stop-color="#e8f2ff"/>
    </linearGradient>
  </defs>
  <rect width="720" height="400" rx="52" fill="url(#g)"/>
  <rect x="84" y="245" width="552" height="56" rx="28" fill="#ffffffaa" stroke="#fff" stroke-width="8"/>
  <rect x="462" y="112" width="114" height="146" rx="24" fill="#ffffffa8" stroke="#fff" stroke-width="8"/>
  <path d="M496 145h47M496 174h47M496 203h35" stroke="#35bfab" stroke-width="8" stroke-linecap="round"/>
  <path d="M152 248c8-66 52-105 116-105 68 0 112 39 126 105z" fill="#fff" stroke="#141414" stroke-width="10" stroke-linejoin="round"/>
  <path d="M188 166l-3-52 45 36M344 166l4-52-45 36" fill="#ffc7dc" stroke="#141414" stroke-width="10" stroke-linejoin="round"/>
  <path d="M398 211c34-23 70-11 72 21 1 27-24 41-59 27" fill="none" stroke="#141414" stroke-width="10" stroke-linecap="round"/>
  <circle cx="232" cy="207" r="22" fill="#111"/>
  <circle cx="308" cy="207" r="22" fill="#111"/>
  <circle cx="224" cy="198" r="7" fill="#fff"/>
  <circle cx="300" cy="198" r="7" fill="#fff"/>
  <path d="M254 232c10 7 24 7 34 0" fill="none" stroke="#111" stroke-width="7" stroke-linecap="round"/>
  <g opacity=".65" fill="#35bfab">
    <circle cx="142" cy="105" r="10"/>
    <circle cx="596" cy="88" r="8"/>
    <circle cx="618" cy="322" r="12"/>
  </g>
</svg>
